<svg width="24" height="20" viewBox="0 0 24 20" fill="none" xmlns="http://www.w3.org/2000/svg">
<path d="M0 17.7322H24V19.5478H0V17.7322ZM0 0V16.3259H24V0H0ZM5.47716 14.3931H2.28441V11.2003H3.69066V12.9868H5.47716V14.3931ZM5.47716 3.33909H3.69066V5.12559H2.28441V1.93284H5.47716V3.33909ZM11.177 12.1628L6.46645 12.1484L6.47081 10.951L6.66394 10.7483C6.66933 10.7426 7.35033 10.014 8.90766 7.7888C9.20484 7.36411 9.39656 6.98545 9.47784 6.66253L9.49842 6.50133C9.47808 5.99559 9.06028 5.59045 8.54963 5.59045C8.09677 5.59045 7.70494 5.91206 7.61789 6.35513L7.48237 7.04508L6.10247 6.77409L6.23798 6.08414C6.45422 4.98323 7.42641 4.1842 8.54958 4.1842C9.84858 4.1842 10.9054 5.241 10.9054 6.54C10.8914 7.28438 10.4733 8.00423 10.0597 8.59519C9.38095 9.56494 8.86134 10.2622 8.48348 10.7484L11.1813 10.7566L11.177 12.1628ZM15.6596 12.1461C15.1297 12.1553 13.8023 12.1605 13.746 12.1607L13.0428 12.1634L13.0402 11.4601C13.0402 11.4363 13.0317 9.06609 13.0317 8.16183C13.0317 7.44656 13.0274 5.11223 13.0269 4.89769L13.023 4.18805H13.0256V4.17736H15.5928C17.602 4.17736 18.952 5.78152 18.952 8.16905C18.952 9.21881 18.651 10.1896 18.1046 10.9028C17.5034 11.6875 16.6351 12.129 15.6596 12.1461ZM21.7156 14.3931H18.5228V12.9868H20.3093V11.2003H21.7156V14.3931ZM21.7156 5.12564H20.3093V3.33909H18.5228V1.93284H21.7156V5.12564Z" fill="#79593D"/>
<path d="M15.5928 5.58356H14.437L14.4653 10.7508C14.8794 10.7484 15.3679 10.7447 15.6351 10.74C16.3243 10.728 16.7514 10.3568 16.9884 10.0476C17.3478 9.57843 17.5458 8.91131 17.5458 8.16904C17.5458 6.91912 17.0327 5.58356 15.5928 5.58356Z" fill="#79593D"/>
</svg>
