<svg width="22" height="24" viewBox="0 0 22 24" fill="none" xmlns="http://www.w3.org/2000/svg">
<path d="M13.6541 10.2736H12.8757V14.0242H13.6541C13.981 14.0242 14.247 13.7707 14.247 13.4591V10.8387C14.247 10.5271 13.981 10.2736 13.6541 10.2736ZM4.54085 7.70004C5.99886 5.80461 8.35112 4.57147 11.0002 4.57147C13.6493 4.57147 16.0016 5.80466 17.4596 7.70004L21.262 5.61823L11.0002 0L0.738403 5.61823L4.54085 7.70004Z" fill="#79593D"/>
<path d="M17.5252 12.2017C17.5252 8.77181 14.5978 5.98145 10.9997 5.98145C7.40149 5.98145 4.47412 8.77181 4.47412 12.2017C4.47412 15.6316 7.40149 18.4219 10.9997 18.4219C14.5979 18.4219 17.5252 15.6315 17.5252 12.2017ZM10.5582 11.3274C10.5585 11.6184 10.4709 11.9032 10.306 12.148C10.4709 12.3928 10.5585 12.6777 10.5582 12.9686V13.9082C10.5582 14.7496 9.84006 15.4342 8.95731 15.4342H7.09159V14.0233H8.95731C8.98934 14.0233 9.02005 14.0112 9.0427 13.9896C9.06535 13.968 9.07809 13.9387 9.07813 13.9082V12.9686C9.07809 12.9381 9.06535 12.9088 9.0427 12.8872C9.02005 12.8656 8.98934 12.8535 8.95731 12.8534H7.09159V11.4426H8.95731C8.98934 11.4426 9.02005 11.4304 9.0427 11.4088C9.06535 11.3872 9.07809 11.358 9.07813 11.3274V10.3879C9.07809 10.3573 9.06535 10.3281 9.0427 10.3065C9.02005 10.2849 8.98934 10.2727 8.95731 10.2727H7.09159V8.86186H8.95731C9.84006 8.86186 10.5582 9.54642 10.5582 10.3879V11.3274ZM13.6536 15.4342H11.3951V8.86186H13.6536C14.7967 8.86186 15.7266 9.74826 15.7266 10.8378V13.4582C15.7266 14.5478 14.7967 15.4342 13.6536 15.4342Z" fill="#79593D"/>
<path d="M10.2599 19.8005C6.1913 19.4433 2.99435 16.1722 2.99435 12.2023C2.99435 11.0239 3.27617 9.90709 3.7787 8.90969L0 6.84091V18.3825L10.2599 23.9997V19.8005ZM18.2213 8.90964C18.7238 9.90705 19.0056 11.0239 19.0056 12.2023C19.0056 16.1722 15.8087 19.4433 11.74 19.8005V23.9997L22 18.3825V6.84082L18.2213 8.90964Z" fill="#79593D"/>
</svg>
