<svg width="107" height="12" viewBox="0 0 107 12" fill="none" xmlns="http://www.w3.org/2000/svg">
<path d="M106.53 6.53033C106.823 6.23744 106.823 5.76256 106.53 5.46967L101.757 0.696699C101.464 0.403806 100.99 0.403806 100.697 0.696699C100.404 0.989593 100.404 1.46447 100.697 1.75736L104.939 6L100.697 10.2426C100.404 10.5355 100.404 11.0104 100.697 11.3033C100.99 11.5962 101.464 11.5962 101.757 11.3033L106.53 6.53033ZM0.46967 5.46967C0.176777 5.76256 0.176777 6.23744 0.46967 6.53033L5.24264 11.3033C5.53553 11.5962 6.01041 11.5962 6.3033 11.3033C6.59619 11.0104 6.59619 10.5355 6.3033 10.2426L2.06066 6L6.3033 1.75736C6.59619 1.46447 6.59619 0.989593 6.3033 0.696699C6.01041 0.403806 5.53553 0.403806 5.24264 0.696699L0.46967 5.46967ZM106 5.25H1V6.75H106V5.25Z" fill="#79593D"/>
</svg>
