<svg width="18" height="18" viewBox="0 0 18 18" fill="none" xmlns="http://www.w3.org/2000/svg">
<path d="M16.7143 10.2857V11.5714C16.7143 12.9857 15.5572 14.1428 14.1429 14.1428H3.47148L4.95005 15.6214C5.2072 15.8786 5.2072 16.2643 4.95005 16.5214C4.69291 16.7786 4.3072 16.7786 4.05005 16.5214L1.47862 13.95C1.22148 13.6929 1.22148 13.3071 1.47862 13.05L4.05005 10.4786C4.3072 10.2214 4.69291 10.2214 4.95005 10.4786C5.2072 10.7357 5.2072 11.1214 4.95005 11.3786L3.47148 12.8571H14.1429C14.8501 12.8571 15.4286 12.2786 15.4286 11.5714V10.2857C15.4286 9.89999 15.6858 9.64285 16.0715 9.64285C16.4572 9.64285 16.7143 9.89999 16.7143 10.2857ZM1.92862 8.35713C2.31434 8.35713 2.57148 8.09999 2.57148 7.71428V6.42856C2.57148 5.72142 3.15005 5.14285 3.8572 5.14285H14.5286L13.0501 6.62142C12.7929 6.87856 12.7929 7.26428 13.0501 7.52142C13.3072 7.77856 13.6929 7.77856 13.9501 7.52142L16.5215 4.94999C16.7786 4.69285 16.7786 4.30713 16.5215 4.04999L13.9501 1.47856C13.6929 1.22142 13.3072 1.22142 13.0501 1.47856C12.7929 1.73571 12.7929 2.12142 13.0501 2.37856L14.5286 3.85713H3.8572C2.44291 3.85713 1.28577 5.01428 1.28577 6.42856V7.71428C1.28577 8.09999 1.54291 8.35713 1.92862 8.35713Z" fill="white"/>
</svg>
