<svg width="24" height="24" viewBox="0 0 24 24" fill="none" xmlns="http://www.w3.org/2000/svg">
<path d="M22.2857 13.7142V15.4285C22.2857 17.3142 20.7429 18.8571 18.8572 18.8571H4.62858L6.60001 20.8285C6.94287 21.1714 6.94287 21.6857 6.60001 22.0285C6.25715 22.3714 5.74287 22.3714 5.40001 22.0285L1.97144 18.5999C1.62858 18.2571 1.62858 17.7428 1.97144 17.3999L5.40001 13.9714C5.74287 13.6285 6.25715 13.6285 6.60001 13.9714C6.94287 14.3142 6.94287 14.8285 6.60001 15.1714L4.62858 17.1428H18.8572C19.8 17.1428 20.5714 16.3714 20.5714 15.4285V13.7142C20.5714 13.1999 20.9143 12.8571 21.4286 12.8571C21.9429 12.8571 22.2857 13.1999 22.2857 13.7142ZM2.57144 11.1428C3.08572 11.1428 3.42858 10.7999 3.42858 10.2857V8.57138C3.42858 7.62852 4.20001 6.85709 5.14287 6.85709H19.3714L17.4 8.82852C17.0572 9.17138 17.0572 9.68566 17.4 10.0285C17.7429 10.3714 18.2572 10.3714 18.6 10.0285L22.0286 6.59995C22.3714 6.25709 22.3714 5.74281 22.0286 5.39995L18.6 1.97138C18.2572 1.62852 17.7429 1.62852 17.4 1.97138C17.0572 2.31423 17.0572 2.82852 17.4 3.17138L19.3714 5.14281H5.14287C3.25715 5.14281 1.71429 6.68566 1.71429 8.57138V10.2857C1.71429 10.7999 2.05715 11.1428 2.57144 11.1428Z" fill="#79593D"/>
</svg>
