<svg width="20" height="20" viewBox="0 0 20 20" fill="none" xmlns="http://www.w3.org/2000/svg">
<path fill-rule="evenodd" clip-rule="evenodd" d="M9.83577 0.0061394C9.94476 -0.00204647 10.0542 -0.00204647 10.1632 0.0061394C10.6311 0.041488 11.0106 0.252649 11.3576 0.524275C11.6832 0.779157 12.0451 1.14008 12.4674 1.56241L12.6925 1.75589C12.9316 1.96054 13.0506 2.06287 13.1948 2.11961C13.3381 2.17636 13.4943 2.18473 13.8088 2.20054L14.1548 2.21822C14.8162 2.21822 15.3827 2.21822 15.8339 2.27868C16.3167 2.3438 16.7734 2.48891 17.1418 2.85821C17.5101 3.22751 17.6562 3.68332 17.7213 4.16611C17.7818 4.61727 17.7818 5.18285 17.7818 5.84424L17.7994 6.19121C17.8152 6.5047 17.8227 6.6619 17.8804 6.80516C17.9371 6.94934 18.0394 7.06841 18.2441 7.30748L18.4366 7.5326C18.859 7.95492 19.2199 8.31585 19.4757 8.64236C19.7464 8.9884 19.9585 9.36793 19.9929 9.83677C20.0022 9.9456 20.0022 10.0544 19.9929 10.1633C19.9585 10.6321 19.7464 11.0116 19.4757 11.3586C19.2199 11.6842 18.859 12.0461 18.4366 12.4674L18.2441 12.6935C18.0394 12.9326 17.9371 13.0516 17.8804 13.1958C17.8227 13.3381 17.8152 13.4953 17.7994 13.8098L17.7818 14.1558C17.7818 14.8172 17.7818 15.3837 17.7213 15.8349C17.6562 16.3176 17.5111 16.7735 17.1418 17.1428C16.7725 17.5121 16.3167 17.6572 15.8339 17.7223C15.3818 17.7828 14.8162 17.7828 14.1548 17.7828L13.7548 17.8107C13.4404 17.8321 13.2832 17.8432 13.1409 17.9037C12.9985 17.9632 12.8804 18.0683 12.6451 18.2786L12.4674 18.4376C12.0451 18.86 11.6841 19.2209 11.3576 19.4758C11.0106 19.7474 10.632 19.9595 10.1632 19.9939C10.0542 20.002 9.94477 20.002 9.83577 19.9939C9.36787 19.9586 8.98833 19.7474 8.64136 19.4758C8.31578 19.2209 7.95392 18.86 7.5316 18.4376L7.30649 18.2451C7.06742 18.0404 6.94835 17.9381 6.80416 17.8814C6.66091 17.8237 6.50463 17.8162 6.19021 17.7995L5.84417 17.7828C5.18185 17.7828 4.61627 17.7828 4.16511 17.7223C3.68233 17.6572 3.22558 17.5121 2.85721 17.1428C2.48885 16.7735 2.3428 16.3176 2.27768 15.8349C2.21722 15.3828 2.21722 14.8172 2.21722 14.1558L2.19955 13.8098C2.18373 13.4953 2.17629 13.3381 2.11862 13.1958C2.06187 13.0516 1.95955 12.9326 1.7549 12.6935L1.56234 12.4674C1.14002 12.0461 0.77909 11.6851 0.523278 11.3586C0.252582 11.0116 0.0404907 10.6321 0.00607233 10.1633C-0.00202411 10.0549 -0.00202411 9.94607 0.00607233 9.8377C0.0404907 9.36886 0.252582 8.9884 0.523278 8.64236C0.77909 8.31585 1.14002 7.95399 1.56141 7.5326L1.7549 7.30748C1.95955 7.06841 2.06187 6.94934 2.11862 6.80516C2.17629 6.6619 2.18373 6.5047 2.19955 6.19121L2.21722 5.84424C2.21722 5.18378 2.21722 4.61727 2.27768 4.16611C2.3428 3.68239 2.48792 3.22658 2.85721 2.85821C3.22651 2.48984 3.68233 2.3438 4.16511 2.27868C4.6172 2.21822 5.18185 2.21822 5.84417 2.21822L6.24417 2.19031C6.55858 2.16798 6.71579 2.15775 6.85812 2.09729C7.00044 2.03682 7.11858 1.93171 7.35393 1.72148L7.5316 1.56334C7.95392 1.14008 8.31485 0.779157 8.64136 0.524275C8.98833 0.252649 9.36694 0.041488 9.83577 0.0061394ZM9.70368 8.63026C9.93344 8.66096 10.2516 8.74375 10.5213 9.01352C10.7911 9.28328 10.8739 9.60142 10.9046 9.83118C10.9297 10.0219 10.9297 10.2433 10.9297 10.4284V14.1865C10.9297 14.4332 10.8317 14.6698 10.6573 14.8443C10.4828 15.0187 10.2462 15.1167 9.99949 15.1167C9.75278 15.1167 9.51617 15.0187 9.34172 14.8443C9.16727 14.6698 9.06926 14.4332 9.06926 14.1865V10.4656C8.82255 10.4656 8.58595 10.3676 8.41149 10.1931C8.23704 10.0187 8.13904 9.78208 8.13904 9.53537C8.13904 9.28866 8.23704 9.05206 8.41149 8.8776C8.58595 8.70315 8.82255 8.60515 9.06926 8.60515H9.10647C9.29252 8.60515 9.51298 8.60515 9.70368 8.63026ZM9.99484 4.88424C9.74878 4.88498 9.51308 4.98337 9.33953 5.1578C9.16598 5.33222 9.06877 5.56841 9.06926 5.81447C9.06926 6.32795 9.48414 6.7447 9.99484 6.7447H10.0041C10.5158 6.7447 10.9297 6.32795 10.9297 5.81447C10.9297 5.30005 10.5148 4.88424 10.0032 4.88424H9.99484Z" fill="#79593D"/>
</svg>
