<svg width="24" height="24" viewBox="0 0 24 24" fill="none" xmlns="http://www.w3.org/2000/svg">
<path d="M21.9183 10.0823C21.7556 10.082 21.5976 10.0276 21.4693 9.9276C21.3409 9.82763 21.2494 9.68781 21.2092 9.53013L21.1857 9.4458C21.137 9.25966 21.1634 9.06184 21.2592 8.89498C21.355 8.72813 21.5126 8.60561 21.6979 8.55384C21.8832 8.50208 22.0814 8.52522 22.2498 8.61827C22.4182 8.71132 22.5433 8.86683 22.5981 9.05127L22.6297 9.16713C22.6574 9.27551 22.66 9.38879 22.6372 9.49832C22.6144 9.60784 22.5669 9.7107 22.4983 9.79903C22.4296 9.88736 22.3417 9.95881 22.2411 10.0079C22.1406 10.057 22.0302 10.0825 21.9183 10.0823ZM21.5751 6.5858L21.5238 6.4956C21.476 6.41196 21.4123 6.33855 21.3361 6.27956C21.26 6.22056 21.173 6.17715 21.0801 6.15178C20.8924 6.10055 20.6921 6.12597 20.5232 6.22243C20.3542 6.3189 20.2306 6.47852 20.1793 6.66618C20.1281 6.85383 20.1535 7.05415 20.25 7.22307L20.3013 7.31327C20.349 7.39708 20.4127 7.47065 20.4889 7.52976C20.565 7.58886 20.6521 7.63234 20.7451 7.65769C20.8382 7.68304 20.9353 7.68976 21.0309 7.67747C21.1265 7.66518 21.2188 7.63412 21.3023 7.58607C21.4711 7.48956 21.5947 7.32998 21.6458 7.14241C21.697 6.95484 21.6715 6.75463 21.5751 6.5858ZM22.9985 11.8079C22.9934 11.4031 22.6597 11.0599 22.2564 11.0833C22.1601 11.0845 22.065 11.1046 21.9764 11.1425C21.8879 11.1804 21.8077 11.2354 21.7404 11.3043C21.6731 11.3732 21.6201 11.4547 21.5843 11.5442C21.5485 11.6336 21.5307 11.7292 21.5319 11.8255L21.5333 12C21.5333 12.1945 21.6106 12.381 21.7481 12.5185C21.8856 12.6561 22.0722 12.7333 22.2667 12.7333C22.4612 12.7333 22.6477 12.6561 22.7852 12.5185C22.9227 12.381 23 12.1945 23 12L22.9985 11.8079ZM18.7423 18.7401C17.8582 19.6273 16.8073 20.3309 15.6502 20.8103C14.4931 21.2897 13.2525 21.5354 12 21.5333C10.1799 21.5333 8.43087 21.0141 6.918 20.0564C7.10219 20.0449 7.27511 19.9638 7.40174 19.8295C7.52837 19.6952 7.59925 19.5179 7.6 19.3333C7.6 19.1388 7.52274 18.9523 7.38521 18.8148C7.24768 18.6773 7.06116 18.6 6.86667 18.6H4.66667C4.47217 18.6 4.28565 18.6773 4.14812 18.8148C4.0106 18.9523 3.93333 19.1388 3.93333 19.3333V21.5333C3.93333 21.7278 4.0106 21.9144 4.14812 22.0519C4.28565 22.1894 4.47217 22.2667 4.66667 22.2667C4.86116 22.2667 5.04769 22.1894 5.18521 22.0519C5.32274 21.9144 5.4 21.7278 5.4 21.5333V20.7809C7.29902 22.2208 9.61683 23.0001 12 23C14.9304 23 17.6936 21.856 19.7777 19.7792C19.9155 19.6419 19.9931 19.4555 19.9935 19.2609C19.9938 19.0664 19.9169 18.8797 19.7796 18.7419C19.6423 18.6041 19.4558 18.5265 19.2613 18.5262C19.0668 18.5258 18.8801 18.6028 18.7423 18.7401ZM19.3333 1.73333C19.1388 1.73333 18.9523 1.81059 18.8148 1.94812C18.6773 2.08565 18.6 2.27217 18.6 2.46667V3.21907C16.701 1.77919 14.3832 0.999892 12 1C9.0696 1 6.3064 2.144 4.22227 4.2208C4.08447 4.35811 4.00686 4.54454 4.00652 4.73907C4.00617 4.9336 4.08312 5.1203 4.22043 5.2581C4.35774 5.3959 4.54417 5.4735 4.7387 5.47385C4.93324 5.47419 5.11994 5.39724 5.25773 5.25993C6.14181 4.3727 7.19268 3.66912 8.34981 3.18973C9.50695 2.71034 10.7475 2.4646 12 2.46667C13.8201 2.46667 15.5691 2.98587 17.082 3.9436C16.8978 3.95513 16.7249 4.03624 16.5983 4.1705C16.4716 4.30475 16.4008 4.48212 16.4 4.66667C16.4 4.86116 16.4773 5.04769 16.6148 5.18521C16.7523 5.32274 16.9388 5.4 17.1333 5.4H19.3333C19.5278 5.4 19.7144 5.32274 19.8519 5.18521C19.9894 5.04769 20.0667 4.86116 20.0667 4.66667V2.46667C20.0667 2.27217 19.9894 2.08565 19.8519 1.94812C19.7144 1.81059 19.5278 1.73333 19.3333 1.73333ZM2.81427 14.5542L2.7908 14.4699C2.74266 14.2814 2.62163 14.1198 2.45433 14.0206C2.28703 13.9213 2.08716 13.8926 1.8987 13.9408C1.71024 13.9889 1.54862 14.1099 1.44939 14.2772C1.35016 14.4445 1.32146 14.6444 1.3696 14.8329L1.40187 14.9487C1.4265 15.0429 1.46964 15.1312 1.52874 15.2085C1.58785 15.2858 1.66176 15.3506 1.74615 15.399C1.83055 15.4475 1.92374 15.4787 2.02031 15.4907C2.11687 15.5028 2.21487 15.4955 2.3086 15.4694C2.40233 15.4432 2.48991 15.3986 2.56624 15.3382C2.64257 15.2779 2.70611 15.2029 2.75318 15.1177C2.80024 15.0326 2.82988 14.9389 2.84037 14.8421C2.85086 14.7454 2.84198 14.6475 2.81427 14.5542ZM3.69867 16.686C3.6022 16.5171 3.44258 16.3934 3.25492 16.3422C3.06727 16.2909 2.86695 16.3164 2.69803 16.4128C2.52912 16.5093 2.40544 16.6689 2.35421 16.8566C2.30298 17.0442 2.3284 17.2446 2.42487 17.4135L2.4762 17.5037C2.52384 17.5875 2.58758 17.661 2.66374 17.7202C2.7399 17.7793 2.82699 17.8227 2.92001 17.8481C3.01302 17.8734 3.11013 17.8802 3.20575 17.8679C3.30137 17.8556 3.39362 17.8245 3.4772 17.7765C3.64598 17.68 3.76952 17.5204 3.82068 17.3328C3.87184 17.1452 3.84641 16.945 3.75 16.7762L3.69867 16.686ZM1.7436 12.9167C1.8399 12.9155 1.93504 12.8954 2.02357 12.8575C2.11211 12.8196 2.1923 12.7646 2.25958 12.6957C2.32686 12.6268 2.37991 12.5453 2.41569 12.4558C2.45148 12.3664 2.4693 12.2708 2.46813 12.1745L2.46667 12C2.46667 11.8055 2.38941 11.619 2.25188 11.4815C2.11435 11.3439 1.92783 11.2667 1.73333 11.2667C1.53884 11.2667 1.35232 11.3439 1.21479 11.4815C1.07726 11.619 1 11.8055 1 12L1.00147 12.1921C1.00378 12.3851 1.08207 12.5694 1.21934 12.705C1.35662 12.8406 1.54182 12.9167 1.7348 12.9167H1.7436Z" fill="#79593D"/>
<path d="M12 6C8.68641 6 6 8.68641 6 12C6 15.3136 8.68641 18 12 18C15.3136 18 18 15.3136 18 12C18 8.68641 15.3136 6 12 6ZM9.22852 9.38625L9.25758 9.34242C9.37477 9.16664 9.49406 8.98477 9.61805 8.80945C9.66937 8.73727 9.77859 8.7157 9.83484 8.7157C10.0528 8.71359 10.2743 8.71242 10.493 8.71242C10.7116 8.71242 10.9315 8.71242 11.1492 8.7157C11.2062 8.7157 11.3156 8.73633 11.3667 8.80805C11.4909 8.98336 11.6114 9.16547 11.7277 9.34148L11.7567 9.38531C11.792 9.43921 11.8103 9.50249 11.8091 9.56691C11.8079 9.63133 11.7874 9.6939 11.7502 9.74648L10.7524 11.1445C10.7229 11.1858 10.684 11.2194 10.6389 11.2426C10.5938 11.2658 10.5438 11.278 10.4931 11.278C10.4424 11.278 10.3924 11.2658 10.3473 11.2426C10.3022 11.2194 10.2632 11.1858 10.2337 11.1445L9.23438 9.74766C9.19714 9.695 9.17666 9.63234 9.17561 9.56786C9.17457 9.50338 9.19301 9.44008 9.22852 9.38625ZM11.9046 13.662C11.7644 13.8655 11.5822 14.0365 11.3702 14.1635C11.0723 13.7308 10.9127 13.2178 10.9127 12.6923C10.9127 12.1669 11.0723 11.6539 11.3702 11.2212C11.5823 11.3481 11.7645 11.5192 11.9044 11.723C11.7272 12.0153 11.6336 12.3506 11.6336 12.6925C11.6336 13.0343 11.7272 13.3696 11.9044 13.662H11.9046ZM10.4927 15.2869C9.89756 15.2867 9.32052 15.082 8.85837 14.7069C8.39622 14.3319 8.07705 13.8094 7.95436 13.227C7.83167 12.6446 7.91293 12.0377 8.18451 11.5081C8.45609 10.9785 8.90148 10.5584 9.44602 10.3181L9.87797 10.9219C9.45965 11.0672 9.10632 11.356 8.88069 11.7371C8.65505 12.1181 8.57169 12.5668 8.64538 13.0035C8.71908 13.4402 8.94507 13.8366 9.28327 14.1225C9.62146 14.4084 10.05 14.5653 10.4929 14.5653C10.9357 14.5653 11.3642 14.4084 11.7024 14.1225C12.0406 13.8366 12.2666 13.4402 12.3403 13.0035C12.414 12.5668 12.3307 12.1181 12.105 11.7371C11.8794 11.356 11.5261 11.0672 11.1077 10.9219L11.5397 10.3174C12.0842 10.5577 12.5296 10.9778 12.8012 11.5075C13.0728 12.0371 13.154 12.644 13.0313 13.2264C12.9086 13.8088 12.5894 14.3313 12.1272 14.7063C11.665 15.0814 11.0879 15.2861 10.4927 15.2862V15.2869ZM13.5073 15.2869C13.0244 15.2876 12.5509 15.153 12.1406 14.8983C12.3417 14.7474 12.5215 14.57 12.675 14.3709C12.9607 14.5125 13.2777 14.5789 13.5962 14.5637C13.9146 14.5485 14.2239 14.4524 14.4948 14.2843C14.7657 14.1162 14.9893 13.8818 15.1443 13.6032C15.2993 13.3246 15.3806 13.011 15.3806 12.6922C15.3806 12.3734 15.2993 12.0599 15.1443 11.7813C14.9893 11.5027 14.7657 11.2683 14.4948 11.1002C14.2239 10.9321 13.9146 10.8359 13.5962 10.8208C13.2777 10.8056 12.9607 10.8719 12.675 11.0135C12.5219 10.8141 12.3422 10.6366 12.1409 10.4859C12.4821 10.2748 12.8677 10.1457 13.2673 10.1088C13.6669 10.0719 14.0696 10.1282 14.4438 10.2733C14.8179 10.4183 15.1533 10.6482 15.4236 10.9448C15.6939 11.2414 15.8917 11.5967 16.0015 11.9827C16.1113 12.3687 16.13 12.7749 16.0562 13.1693C15.9824 13.5638 15.8182 13.9357 15.5763 14.256C15.3345 14.5762 15.0217 14.836 14.6624 15.0149C14.3032 15.1937 13.9074 15.2868 13.5061 15.2869H13.5073Z" fill="#79593D"/>
</svg>
