<svg width="24" height="24" viewBox="0 0 24 24" fill="none" xmlns="http://www.w3.org/2000/svg">
<path d="M20 7.17984V14.2068C20 18.3955 17.7573 17.8388 17.7573 22.0375V22.6328C17.7573 22.8372 17.5913 23 17.3912 23C17.3857 23 15.8726 22.9933 9.79126 22.9541C9.69454 22.9535 9.60199 22.9146 9.53382 22.8458C9.46564 22.777 9.42738 22.6839 9.4274 22.5869V21.2999C9.45532 20.1708 9.0553 19.9152 8.44977 19.5287C7.97561 19.2258 7.38519 18.849 6.99707 17.9787L4.12645 11.5438C3.79545 10.8022 4.13707 9.93414 4.8853 9.61933C6.53059 8.92691 7.25013 10.538 8.30194 11.9767L8.37471 4.27312C8.39371 2.9652 9.60741 2.31873 10.6745 2.62285C10.8309 2.66742 10.9378 2.8125 10.9378 2.97558V10.7452C10.9378 10.9481 11.1021 11.1124 11.3039 11.1124C11.503 11.1124 11.6701 10.9513 11.6701 10.7452V1.66248C11.6701 1.55209 11.719 1.44689 11.8047 1.37759C12.4292 0.871929 13.3864 0.876152 14.0071 1.37819C14.0927 1.44745 14.1416 1.55269 14.1416 1.66303V7.83811C14.1416 7.91554 14.0935 7.98586 14.0204 8.01074C12.9081 8.38912 12.8984 9.97701 14.0204 10.3587C14.0935 10.3836 14.1416 10.4538 14.1416 10.5313V10.7453C14.1416 10.7954 14.1518 10.8451 14.1717 10.8911C14.1916 10.9371 14.2206 10.9786 14.2571 11.013C14.2936 11.0473 14.3367 11.0738 14.3838 11.0908C14.4308 11.1078 14.4809 11.1149 14.5308 11.1118C14.7259 11.0998 14.8739 10.9288 14.8739 10.7328V10.6076C14.8739 10.5062 14.956 10.424 15.0571 10.424C16.0724 10.4241 16.5092 10.4245 16.7045 10.4241C16.7286 10.424 16.7524 10.4287 16.7746 10.4379C16.7969 10.4471 16.8171 10.4606 16.8341 10.4777C16.8512 10.4948 16.8646 10.515 16.8738 10.5373C16.883 10.5596 16.8878 10.5835 16.8877 10.6077V12.2599C16.8877 12.4142 16.9825 12.5459 17.1166 12.6005C17.3599 12.6976 17.62 12.5186 17.62 12.2599V10.1854C17.62 10.1377 17.6381 10.0915 17.6718 10.0578C18.1519 9.57632 18.1521 8.79344 17.6718 8.31174C17.6383 8.2777 17.6197 8.23175 17.6199 8.18396V5.89447C17.6198 5.72139 17.7403 5.57272 17.9086 5.53458C18.9095 5.30752 20 5.94606 20 7.17984Z" fill="#79593D"/>
<path d="M17.2998 9.18479C17.2998 9.46087 17.0767 9.68967 16.7963 9.68967H14.4164C14.3148 9.68967 14.2209 9.65984 14.1418 9.60797C13.8363 9.40749 13.8371 8.96159 14.1418 8.76161C14.2209 8.70975 14.3148 8.67991 14.4164 8.67991H16.7963C17.0769 8.67991 17.2998 8.90881 17.2998 9.18479ZM16.7045 7.94545C16.5088 7.94504 16.0713 7.94545 15.0573 7.9455C15.0087 7.9455 14.9621 7.92616 14.9278 7.89173C14.8934 7.85731 14.8741 7.81061 14.8741 7.7619V2.94958C14.8741 2.78673 14.9802 2.64046 15.1368 2.59727C15.7092 2.43929 16.3285 2.58529 16.7542 2.92934C16.8395 2.99828 16.8877 3.10384 16.8877 3.21368V7.76158C16.8877 7.78572 16.883 7.80963 16.8738 7.83195C16.8646 7.85426 16.8512 7.87453 16.8341 7.89161C16.8171 7.90869 16.7969 7.92224 16.7747 7.93148C16.7524 7.94071 16.7286 7.94546 16.7045 7.94545Z" fill="#79593D"/>
</svg>
