<svg width="24" height="24" viewBox="0 0 24 24" fill="none" xmlns="http://www.w3.org/2000/svg">
<path d="M14.6108 6.49146L12.3227 8.36015C15.3032 8.76534 17.608 11.3417 17.608 14.4492C17.608 17.8373 14.868 20.5937 11.5 20.5937C8.13204 20.5937 5.39196 17.8373 5.39196 14.4492C5.39196 11.3404 7.69849 8.76362 10.6803 8.35972L8.38917 6.49146C5.23648 7.7427 3 10.8381 3 14.4492C3 19.1641 6.81304 22.9999 11.5 22.9999C16.187 22.9999 20 19.1641 20 14.4492C20 10.8381 17.7635 7.7427 14.6108 6.49146Z" fill="#222222" fill-opacity="0.3"/>
<path d="M7.67884 4.25039L11.0959 7.04333C11.2101 7.13668 11.3528 7.18764 11.4999 7.18764C11.6471 7.18764 11.7898 7.13668 11.904 7.04333L15.3211 4.25039C15.4335 4.15848 15.5116 4.03097 15.5428 3.88863C15.5739 3.7463 15.5561 3.59756 15.4924 3.46668L14.4673 1.36123C14.4146 1.25293 14.3327 1.16168 14.231 1.09786C14.1293 1.03404 14.0118 1.00021 13.8919 1.00021H9.10799C8.98811 1.00021 8.87064 1.03404 8.76892 1.09786C8.6672 1.16168 8.58533 1.25293 8.5326 1.36123L7.50747 3.46668C7.44375 3.59756 7.42601 3.7463 7.45713 3.88863C7.48825 4.03097 7.5664 4.15848 7.67884 4.25039ZM4.37926 2.22116L5.74609 2.90865C6.06256 3.06789 6.44749 2.93869 6.6057 2.62042C6.76395 2.30207 6.63564 1.91488 6.31918 1.75573L4.95234 1.06823C4.63592 0.90899 4.25099 1.03811 4.09273 1.35646C3.93448 1.67482 4.06275 2.062 4.37926 2.22116ZM4.9523 6.34613L6.31914 5.65863C6.63564 5.49948 6.76391 5.11229 6.60566 4.79394C6.4474 4.47554 6.06256 4.34642 5.74605 4.5057L4.37921 5.1932C4.06271 5.35235 3.93444 5.73954 4.09269 6.05789C4.25124 6.37685 4.63652 6.50507 4.9523 6.34613ZM17.2538 2.90865L18.6206 2.22116C18.9372 2.062 19.0654 1.67482 18.9072 1.35646C18.7489 1.03807 18.3641 0.908947 18.0476 1.06823L16.6807 1.75573C16.3642 1.91488 16.2359 2.30207 16.3942 2.62042C16.5528 2.93938 16.938 3.06759 17.2538 2.90865ZM16.6808 5.65863L18.0476 6.34613C18.3641 6.50537 18.749 6.37616 18.9072 6.05789C19.0655 5.73954 18.9372 5.35235 18.6207 5.1932L17.2539 4.5057C16.9374 4.34642 16.5525 4.47558 16.3942 4.79394C16.236 5.11229 16.3643 5.49948 16.6808 5.65863Z" fill="#222222" fill-opacity="0.3"/>
</svg>
