<svg width="24" height="24" viewBox="0 0 24 24" fill="none" xmlns="http://www.w3.org/2000/svg">
<path fill-rule="evenodd" clip-rule="evenodd" d="M2.48306 15.129L1.26606 7.524C1.22694 7.27975 1.2591 7.0294 1.35868 6.80296C1.45826 6.57652 1.62103 6.38361 1.82748 6.24734C2.03393 6.11108 2.2753 6.03725 2.52266 6.03471C2.77001 6.03216 3.01285 6.10101 3.22206 6.233L7.03506 8.641L11.0311 4.061C11.1518 3.92266 11.3007 3.81177 11.4678 3.73578C11.635 3.6598 11.8165 3.62048 12.0001 3.62048C12.1837 3.62048 12.3651 3.6598 12.5323 3.73578C12.6994 3.81177 12.8484 3.92266 12.9691 4.061L16.9651 8.641L20.7781 6.233C20.9873 6.10147 21.2301 6.03299 21.4772 6.03574C21.7244 6.0385 21.9656 6.11237 22.1719 6.24853C22.3782 6.38469 22.5409 6.57738 22.6406 6.80357C22.7403 7.02975 22.7727 7.27987 22.7341 7.524L21.5171 15.129H2.48306ZM21.2771 16.629L20.9221 18.846C20.8538 19.2738 20.6353 19.6632 20.3057 19.9443C19.9762 20.2255 19.5572 20.3799 19.1241 20.38H4.87606C3.98206 20.38 3.21906 19.73 3.07806 18.846L2.72306 16.629H21.2771Z" fill="#79593D"/>
</svg>
