<svg width="18" height="18" viewBox="0 0 18 18" fill="none" xmlns="http://www.w3.org/2000/svg">
<path d="M16.355 4.64501L13.355 1.64501C13.3083 1.59867 13.2529 1.56201 13.1919 1.53712C13.131 1.51224 13.0658 1.49963 13 1.50001H12V5.50001C12 5.76522 11.8946 6.01958 11.7071 6.20711C11.5196 6.39465 11.2652 6.50001 11 6.50001H7C6.73478 6.50001 6.48043 6.39465 6.29289 6.20711C6.10535 6.01958 6 5.76522 6 5.50001V1.50001H3C2.60217 1.50001 2.22064 1.65804 1.93934 1.93935C1.65804 2.22065 1.5 2.60218 1.5 3.00001V15C1.5 15.3978 1.65804 15.7794 1.93934 16.0607C2.22064 16.342 2.60217 16.5 3 16.5H4V12C4 11.6022 4.15803 11.2206 4.43934 10.9393C4.72064 10.658 5.10217 10.5 5.5 10.5H12.5C12.8978 10.5 13.2793 10.658 13.5607 10.9393C13.842 11.2206 14 11.6022 14 12V16.5H15C15.3978 16.5 15.7793 16.342 16.0607 16.0607C16.342 15.7794 16.5 15.3978 16.5 15V5.00001C16.5004 4.9342 16.4878 4.86897 16.4629 4.80805C16.438 4.74713 16.4013 4.69173 16.355 4.64501Z" fill="white"/>
<path d="M7 1.5H11V5.5H7V1.5ZM12.5 11.5H5.5C5.36739 11.5 5.24021 11.5527 5.14645 11.6464C5.05268 11.7402 5 11.8674 5 12V16.5H13V12C13 11.8674 12.9473 11.7402 12.8535 11.6464C12.7598 11.5527 12.6326 11.5 12.5 11.5Z" fill="white"/>
</svg>
