<svg width="24" height="24" viewBox="0 0 24 24" fill="none" xmlns="http://www.w3.org/2000/svg">
<path d="M18.3675 3.18751C18.1706 2.85242 17.8902 2.57405 17.5537 2.37952C17.2173 2.185 16.8361 2.08095 16.4475 2.07751H7.55249C7.16384 2.08095 6.78271 2.185 6.44623 2.37952C6.10975 2.57405 5.8294 2.85242 5.63249 3.18751L1.18499 10.89C0.987509 11.2321 0.883545 11.6201 0.883545 12.015C0.883545 12.41 0.987509 12.798 1.18499 13.14L5.63249 20.8125C5.8294 21.1476 6.10975 21.426 6.44623 21.6205C6.78271 21.815 7.16384 21.9191 7.55249 21.9225H16.4475C16.8361 21.9191 17.2173 21.815 17.5537 21.6205C17.8902 21.426 18.1706 21.1476 18.3675 20.8125L22.815 13.11C23.0125 12.768 23.1164 12.38 23.1164 11.985C23.1164 11.5901 23.0125 11.2021 22.815 10.86L18.3675 3.18751ZM15.75 12C15.75 12.7417 15.5301 13.4667 15.118 14.0834C14.7059 14.7001 14.1203 15.1807 13.4351 15.4646C12.7498 15.7484 11.9958 15.8227 11.2684 15.678C10.541 15.5333 9.87279 15.1761 9.34834 14.6517C8.82389 14.1272 8.46674 13.459 8.32204 12.7316C8.17735 12.0042 8.25161 11.2502 8.53544 10.565C8.81927 9.87973 9.29992 9.29406 9.9166 8.882C10.5333 8.46995 11.2583 8.25001 12 8.25001C12.9946 8.25001 13.9484 8.6451 14.6516 9.34836C15.3549 10.0516 15.75 11.0055 15.75 12Z" fill="#79593D"/>
</svg>
